<svg xmlns="http://www.w3.org/2000/svg" xmlns:xlink="http://www.w3.org/1999/xlink" width="100" zoomAndPan="magnify" viewBox="0 0 75 74.999997" height="100" preserveAspectRatio="xMidYMid meet" version="1.0"><defs><clipPath id="9e48cea137"><path d="M 0 13.0625 L 74.25 13.0625 L 74.25 61.8125 L 0 61.8125 Z M 0 13.0625 " clip-rule="nonzero"/></clipPath></defs><g clip-path="url(#9e48cea137)"><path fill="#ffffff" d="M 38.132812 23.351562 C 32.214844 15.902344 27.265625 13.0625 21.34375 13.0625 C 9.265625 13.0625 0.015625 28.597656 0.015625 45.039062 C 0.015625 55.324219 5.050781 61.8125 13.484375 61.8125 C 19.554688 61.8125 23.921875 58.984375 31.683594 45.574219 C 31.683594 45.574219 34.917969 39.929688 37.144531 36.039062 C 37.921875 37.28125 38.742188 38.621094 39.609375 40.0625 L 43.246094 46.113281 C 50.335938 57.839844 54.289062 61.8125 61.445312 61.8125 C 69.664062 61.8125 74.234375 55.238281 74.234375 44.734375 C 74.234375 27.519531 64.773438 13.0625 53.28125 13.0625 C 47.195312 13.0625 42.4375 17.59375 38.132812 23.351562 Z M 49.515625 40.71875 L 45.160156 33.542969 C 43.984375 31.652344 42.855469 29.910156 41.765625 28.316406 C 45.6875 22.332031 48.925781 19.351562 52.773438 19.351562 C 60.765625 19.351562 67.160156 30.984375 67.160156 45.273438 C 67.160156 50.71875 65.355469 53.878906 61.617188 53.878906 C 58.03125 53.878906 56.320312 51.539062 49.515625 40.71875 Z M 8.042969 45.171875 C 8.042969 33.234375 14.0625 21.03125 21.238281 21.03125 C 25.125 21.03125 28.375 23.25 33.347656 30.289062 C 28.625 37.453125 25.765625 41.945312 25.765625 41.945312 C 19.472656 51.695312 17.292969 53.878906 13.789062 53.878906 C 10.183594 53.878906 8.042969 50.75 8.042969 45.171875 Z M 8.042969 45.171875 " fill-opacity="1" fill-rule="nonzero"/></g></svg>