<svg width="500" height="500" viewBox="0 0 500 500" fill="none" xmlns="http://www.w3.org/2000/svg">
<rect width="500" height="500" fill="white"/>
<path d="M343.143 320.241C348.002 327.006 352.129 331.814 355.518 334.67C358.907 337.533 364.401 338.957 372 338.957V361.165H292.695L234.93 266.302C230.495 271.167 226.368 275.608 222.555 279.626C218.755 283.65 215.688 287.033 213.364 289.767V324.041C213.364 328.701 214.892 332.353 217.96 335.004C221.021 337.642 225.828 338.957 232.388 338.957V361.165H197.19C193.166 361.165 189.674 360.215 186.715 358.315C183.75 356.415 181.529 354.092 180.04 351.332C178.769 354.092 176.709 356.415 173.853 358.315C170.99 360.215 167.447 361.165 163.224 361.165H128V338.957C134.553 338.957 139.36 337.642 142.428 335.004C145.509 332.353 147.05 328.701 147.05 324.041V176.188C147.05 171.535 145.509 167.889 142.428 165.251C139.36 162.6 134.553 161.272 128 161.272V139.064H232.388V161.272C225.828 161.272 221.021 162.6 217.96 165.251C214.892 167.889 213.364 171.535 213.364 176.188V258.369C220.553 250.962 228.216 243.08 236.367 234.723C244.512 226.373 251.861 218.703 258.421 211.72C264.974 204.737 269.627 199.666 272.387 196.496C281.046 185.918 283.048 177.407 278.395 170.951C273.754 164.5 264.454 161.272 250.488 161.272V139.064H350.742V161.272C346.943 161.272 342.078 162.119 336.16 163.813C330.236 165.508 324.517 169.423 319.01 175.546C318.375 176.387 316.045 178.98 312.027 183.325C308.022 187.658 302.996 193.1 296.957 199.653C290.93 206.213 284.325 213.408 277.137 221.245C280.301 225.905 284.312 231.874 289.178 239.165C294.056 246.456 299.293 254.338 304.89 262.81C310.499 271.269 315.955 279.466 321.244 287.405C326.532 295.332 331.128 302.206 335.03 308.021C338.945 313.842 341.654 317.918 343.143 320.241ZM180.04 324.041L183.865 250.102L180.04 176.188L176.548 250.102L180.04 324.041ZM286.02 295.159L316.494 335.466L292.361 291.359L261.912 251.385L286.02 295.159Z" fill="#5479A3"/>
</svg>
