<svg height="100" preserveAspectRatio="xMidYMid meet" viewBox="0 0 75 74.999997" width="100" xmlns="http://www.w3.org/2000/svg" xmlns:xlink="http://www.w3.org/1999/xlink" zoomAndPan="magnify"><clipPath id="a"><path d="m0 13.0625h74v48.75h-74zm0 0"/></clipPath><g clip-path="url(#a)"><path d="m37.953125 23.375c-5.890625-7.464844-10.816406-10.3125-16.710937-10.3125-12.019532 0-21.226563 15.570312-21.226563 32.050781 0 10.3125 5.011719 16.816407 13.40625 16.816407 6.039063 0 10.386719-2.832032 18.109375-16.277344 0 0 3.222656-5.660156 5.4375-9.558594.773438 1.246094 1.589844 2.589844 2.453125 4.03125l3.621094 6.066406c7.054687 11.757813 10.988281 15.738282 18.113281 15.738282 8.175781 0 12.726562-6.589844 12.726562-17.117188 0-17.257812-9.414062-31.75-20.851562-31.75-6.058594 0-10.792969 4.542969-15.078125 10.3125zm11.328125 17.410156-4.332031-7.191406c-1.171875-1.898438-2.296875-3.644531-3.378907-5.242188 3.902344-5.996093 7.121094-8.984374 10.953126-8.984374 7.953124 0 14.320312 11.660156 14.320312 25.984374 0 5.457032-1.796875 8.625-5.519531 8.625-3.566407 0-5.273438-2.34375-12.042969-13.191406zm-41.277344 4.464844c0-11.964844 5.992188-24.199219 13.136719-24.199219 3.867187 0 7.097656 2.222657 12.050781 9.28125-4.703125 7.179688-7.550781 11.679688-7.550781 11.679688-6.261719 9.773437-8.429687 11.964843-11.914063 11.964843-3.589843 0-5.722656-3.136718-5.722656-8.726562zm0 0"/></g></svg>